# xmcd
#
# Track frame offsets: 
#        150
#        29213
#        61876
#        89251
#        109726
#        131139
#        168339
#        211802
#        259390
#
# Disc length: 3865 seconds
#
# Revision: 2
# Processed by: cddbd v1.5.2PL0 Copyright (c) Steve Scherf et al.
# Submitted via: ExactAudioCopy v0.99pb5
#
DISCID=820f1709
DTITLE=Too Slim and the Taildraggers - Beer and Barbecue Chips
DYEAR=2005
DGENRE=Blues
TTITLE0=Crawlin' Kingsnake
TTITLE1=Sam's Pit - Kingsize Troublemakers
TTITLE2=Searchin for the Motherlode
TTITLE3=Soul Perspective
TTITLE4=Walk on Water
TTITLE5=Crowbar Hotel
TTITLE6=Voodoo Child
TTITLE7=Hell's Half Acre
TTITLE8=One More Gallon of Gasoline
EXTD=
EXTT0=
EXTT1=
EXTT2=
EXTT3=
EXTT4=
EXTT5=
EXTT6=
EXTT7=
EXTT8=
PLAYORDER=
